<?xml version="1.0" encoding="UTF-8"?>
<svg xmlns="http://www.w3.org/2000/svg" viewBox="0 0 488 140" shape-rendering="geometricPrecision" role="img" aria-labelledby="title description">
<title id="title">M100 wordmark</title>
<desc id="description">Geometric M100 lettering. The two zeroes use identical contours. All counters are transparent.</desc>
<g transform="translate(12 12)"><g id="m100-lettering">
<path id="letter-m" fill="#355856" d="M0 4 H40 L82 50 L124 4 H164 V114 H124 V54 L82 100 L40 54 V114 H0 Z"/>
<path id="numeral-1" fill="#B89255" d="M173 22 L218 2 V114 H190 V36 L173 43 Z"/>
<g id="numeral-0-first" transform="translate(227 0)"><path fill="#355856" d="M58 0 A58 58 0 1 1 58 116 A58 58 0 1 1 58 0 Z M58 22 A32 36 0 1 0 58 94 A32 36 0 1 0 58 22 Z" fill-rule="evenodd"/></g>
<g id="numeral-0-second" transform="translate(348 0)"><path fill="#355856" d="M58 0 A58 58 0 1 1 58 116 A58 58 0 1 1 58 0 Z M58 22 A32 36 0 1 0 58 94 A32 36 0 1 0 58 22 Z" fill-rule="evenodd"/></g>
</g></g>
</svg>
